<?xml version="1.0" encoding="UTF-8" standalone="no"?>
<!-- Created with Inkscape (http://www.inkscape.org/) -->

<svg
   width="270.93332mm"
   height="270.93332mm"
   viewBox="0 0 270.93332 270.93332"
   version="1.1"
   id="svg1"
   xml:space="preserve"
   xmlns="http://www.w3.org/2000/svg"
   xmlns:svg="http://www.w3.org/2000/svg"><defs
     id="defs1" /><rect
     style="fill:#f7f3e7;fill-opacity:1;stroke-width:0.264583"
     id="rect1"
     width="270.59598"
     height="270.59598"
     x="-4.6411134e-07"
     y="0.5433653" /><g
     id="layer1"
     transform="translate(30.691669,-12.580373)"><path
       style="fill:#734923;fill-opacity:1"
       d="M 98.318632,235.71714 C 80.65643,234.23583 64.924983,228.04762 50.655039,216.96792 43.296662,211.25461 35.63727,202.66931 30.286089,194.13667 25.167164,185.97436 20.614188,174.11399 19.030398,164.81592 17.839051,157.82179 17.484302,146.62586 18.246307,140.06994 20.150311,123.68883 26.220436,109.11703 36.543954,96.14505 39.62293,92.276174 46.029891,85.907984 50.174523,82.596966 62.668038,72.616285 77.178845,66.449364 93.025672,64.385735 c 4.429547,-0.57683 15.288888,-0.799759 19.810338,-0.40668 21.63832,1.881158 39.94633,10.307896 54.91404,25.275611 14.60162,14.601614 23.01454,32.548384 24.73779,52.771614 0.45421,5.33047 0.18652,15.16068 -0.54479,20.0057 -1.61416,10.69401 -4.67998,19.72863 -9.79672,28.86983 -3.89657,6.96134 -8.08231,12.60893 -13.45834,18.15864 -7.33597,7.57296 -14.80575,13.08393 -24.08383,17.76831 -8.86787,4.47726 -18.23946,7.26916 -28.56666,8.51033 -4.02731,0.48402 -13.93488,0.6954 -17.718868,0.37805 z m 15.968698,-6.37777 c 18.40734,-1.75023 36.25595,-10.5069 50.08721,-24.57319 l 3.25596,-3.31129 -31.10336,-0.0672 c -17.10684,-0.037 -45.122963,-0.037 -62.25804,0 l -31.154686,0.0672 4.105636,4.10104 c 5.979614,5.97292 11.859395,10.37174 19.177696,14.34734 10.849023,5.89362 21.728685,8.94593 35.057294,9.83538 2.16837,0.1447 9.51547,-0.0839 12.83229,-0.39928 z M 65.251501,194.9647 c 1.181012,-0.32803 2.51557,-1.77878 2.740817,-2.97945 0.09614,-0.51248 -0.01916,-1.5945 -0.275209,-2.58261 -0.668568,-2.58009 -0.265557,-4.35505 2.15334,-9.48384 0.782149,-1.65839 1.422089,-3.05737 1.422089,-3.10885 0,-0.0515 -1.041956,-0.0936 -2.315458,-0.0936 -2.506049,0 -10.119714,-0.80871 -13.248864,-1.40727 -1.938281,-0.37077 -1.938281,-0.37077 -2.533829,0.5844 -2.579882,4.13773 -4.575592,12.47135 -3.749371,15.65651 0.421293,1.62413 1.76214,3.10762 3.092651,3.42166 1.322305,0.31211 11.585318,0.30649 12.713834,-0.007 z m -19.786439,-1.51345 c -1.038808,-4.41443 0.283512,-12.2362 2.973632,-17.58958 l 0.894827,-1.78072 -0.728304,-0.16212 c -6.523673,-1.45214 -12.942914,-4.06719 -14.338244,-5.84106 -1.328908,-1.68944 -0.348769,-3.29394 3.506339,-5.73993 1.212697,-0.76943 2.234888,-3.54149 4.661759,-12.64213 3.881414,-14.5551 7.312734,-21.67054 13.596339,-28.1944 6.110536,-6.34418 12.826925,-10.05287 21.584258,-11.91852 3.056007,-0.65105 3.830802,-0.71024 9.287286,-0.70955 5.186635,6.6e-4 6.310819,0.0778 8.731249,0.59941 14.499227,3.12438 25.311007,12.12639 31.107597,25.90054 0.7595,1.80476 1.07614,2.31819 1.20869,1.95986 0.0988,-0.26703 0.54854,-2.99461 0.99945,-6.06127 1.47982,-10.06426 3.51706,-15.19587 7.69468,-19.38211 3.36029,-3.36723 6.60627,-4.68239 12.19638,-4.94155 8.77313,-0.40673 15.22386,2.39589 20.21007,8.78059 4.4483,5.69591 6.2266,10.82052 6.24373,17.99285 0.0205,8.58431 -2.56273,14.91145 -7.89039,19.32593 -3.27015,2.70964 -6.60107,4.25476 -10.84681,5.03152 l -2.32084,0.42461 -2.35161,3.15427 c -1.29338,1.73486 -3.29222,4.05294 -4.44185,5.15129 l -2.09025,1.99701 0.77856,0.97852 c 1.39218,1.74976 4.64042,4.72441 5.80878,5.31952 0.62731,0.31953 2.23001,0.81377 3.56155,1.09832 1.41737,0.30289 2.83565,0.79177 3.42124,1.1793 2.154,1.42545 3.04851,3.96234 2.23695,6.34414 -0.98401,2.8879 -4.50392,6.59531 -7.69422,8.10408 -2.26524,1.0713 -4.07211,1.37069 -7.42156,1.22974 -5.8957,-0.24811 -9.71671,-2.18331 -16.2789,-8.24465 l -3.57187,-3.29925 -0.21283,1.10595 c -0.36976,1.92141 -0.0464,4.12405 0.99748,6.79449 0.5404,1.38245 1.04795,3.19815 1.12788,4.0349 l 0.14534,1.52135 h 22.16104 22.16105 l 1.58528,-2.4474 c 0.87191,-1.34606 2.35993,-3.9952 3.30672,-5.88698 4.2372,-8.46632 6.65318,-15.56368 7.97081,-23.41562 4.30654,-25.66337 -3.36626,-50.52751 -21.2583,-68.888647 C 154.15068,84.043673 142.76611,77.164188 129.36254,73.295575 114.37595,68.970063 99.064326,68.73671 83.830759,72.601659 74.661067,74.928127 67.120099,78.298673 59.253997,83.586603 48.776601,90.629956 40.016957,100.1191 33.850818,111.10535 c -3.459542,6.16389 -5.827973,12.17085 -7.556427,19.16508 -1.789768,7.24234 -2.188872,10.61737 -2.207131,18.66467 -0.01702,7.50109 0.249146,10.76582 1.307898,16.04236 1.717208,8.55812 5.85148,19.21141 10.048839,25.8941 2.797807,4.45443 2.229868,4.10104 6.590814,4.10104 h 3.788258 z m 54.573878,0.62777 c -1.304136,-1.92175 -2.28807,-6.65751 -2.28807,-11.01267 0,-1.8467 0.363649,-5.72376 0.660735,-7.04445 0.126456,-0.56217 0.126456,-0.56217 -1.849524,0.008 -1.086789,0.31365 -2.097508,0.6918 -2.246042,0.84034 -0.436974,0.43697 -4.0122,8.61071 -4.157204,9.50426 -0.08892,0.54797 0.112162,1.38122 0.609381,2.52511 0.609625,1.40248 0.74414,2.09686 0.753523,3.88973 l 0.01142,2.18248 4.556088,3.3e-4 4.556093,3.4e-4 z m 23.23811,0.58364 c 0.92646,-0.42213 1.11764,-1.39992 0.55857,-2.85686 -1.60273,-4.17672 -1.73201,-4.67095 -1.7375,-6.64227 -0.005,-1.82325 1.60119,-11.763 2.02227,-12.514 0.80972,-1.44416 2.08313,-1.86329 3.22695,-1.06213 0.56294,0.3943 0.7565,0.3918 2.50627,-0.0324 7.87752,-1.90955 13.17303,-5.51866 18.24686,-12.43599 1.99405,-2.71856 3.23335,-3.96257 4.38299,-4.39966 0.36032,-0.137 1.79578,-0.47426 3.18991,-0.74948 4.55802,-0.89982 7.36757,-2.20571 9.83069,-4.56935 1.28577,-1.23385 3.02802,-3.59119 2.81304,-3.80617 -0.0707,-0.0707 -0.8435,0.0567 -1.71734,0.28318 -3.08942,0.80054 -7.04763,0.34953 -10.21999,-1.16449 -2.19762,-1.04883 -4.82392,-3.02972 -5.34,-4.02771 -0.56009,-1.0831 -0.26742,-2.23739 0.69326,-2.73418 0.94893,-0.49071 1.79885,-0.20748 2.67022,0.88984 0.95486,1.20246 3.10462,2.52182 5.21441,3.20021 1.56324,0.50265 2.30471,0.58913 4.25242,0.49601 2.10339,-0.10056 2.58319,-0.22595 4.42726,-1.15695 1.66354,-0.83986 2.11637,-1.19946 2.3144,-1.83791 0.13541,-0.43656 0.2575,-2.9964 0.27131,-5.68854 0.0223,-4.34253 -0.0423,-5.12738 -0.57241,-6.95629 -1.15649,-3.99003 -3.32292,-7.45157 -6.55715,-10.47702 -2.93344,-2.7441 -6.43152,-4.10808 -11.34006,-4.42174 -3.75915,-0.24021 -6.08338,0.17277 -9.03914,1.60613 -5.90276,2.86247 -8.57604,8.08702 -10.29967,20.12931 -2.13916,14.94531 -4.58007,21.17993 -10.93524,27.931 -4.55092,4.83442 -9.58204,8.11206 -18.33394,11.94407 -0.93164,0.40793 -0.96534,0.47362 -1.27776,2.49061 -0.78832,5.08959 -0.61034,11.47292 0.4028,14.44632 0.49799,1.46152 1.95805,3.21155 3.24802,3.89309 0.88753,0.46891 1.58593,0.51082 8.69169,0.52158 5.36447,0.008 7.93458,-0.0831 8.40686,-0.29825 z m 25.89105,-64.56419 c -1.28775,-0.33369 -2.20473,-1.59734 -2.20473,-3.03825 0,-1.00827 0.1417,-1.33848 0.89958,-2.09637 1.16342,-1.16341 2.61551,-1.24714 3.83488,-0.22112 1.47901,1.24451 1.59886,3.26626 0.27227,4.59285 -0.86267,0.86267 -1.6206,1.06903 -2.802,0.76289 z m -60.455715,32.10628 c 4.269406,-2.93268 7.980011,-5.33215 8.245787,-5.33215 0.601032,0 7.266888,1.48982 8.946508,1.99955 0.6814,0.20678 1.43875,0.37726 1.68302,0.37884 0.51835,0.003 1.27567,-0.68299 1.27567,-1.15609 0,-0.93433 -0.80325,-1.27976 -5.9439,-2.55614 -2.89918,-0.71984 -5.371964,-1.40952 -5.49507,-1.53263 -0.123107,-0.1231 -1.655274,-4.77585 -3.404817,-10.33944 -2.697122,-8.5769 -3.12816,-10.17996 -2.833704,-10.53873 0.191006,-0.23273 3.353611,-3.14848 7.028011,-6.47946 3.97043,-3.59933 6.68073,-6.24776 6.68073,-6.52822 0,-0.25955 -0.23861,-0.68785 -0.53024,-0.95177 -0.42144,-0.3814 -0.65218,-0.42238 -1.12448,-0.19968 -0.32683,0.1541 -3.630333,3.02581 -7.341114,6.38158 -7.605294,6.8777 -6.773921,6.43868 -10.847916,5.72842 -1.236927,-0.21565 -5.389926,-0.86585 -9.228887,-1.44489 -3.838961,-0.57903 -7.02551,-1.09837 -7.081222,-1.15409 -0.05571,-0.0557 -0.632129,-1.56182 -1.280929,-3.34692 -0.6488,-1.7851 -1.32159,-3.41668 -1.495089,-3.62573 -0.411352,-0.49565 -1.550321,-0.34946 -1.92156,0.24663 -0.229989,0.3693 -0.04331,1.17645 0.887316,3.83646 0.648223,1.85283 1.179752,3.55419 1.181176,3.78082 0.0014,0.22663 -2.59256,4.42358 -5.764408,9.32656 l -5.766997,8.91452 h -2.432911 c -1.773755,0 -2.59223,0.11159 -3.020949,0.41187 -0.698239,0.48907 -0.75751,1.23294 -0.146892,1.84356 0.379031,0.37903 0.80412,0.41516 3.019032,0.25663 2.523859,-0.18064 2.584743,-0.17147 2.905074,0.43765 0.961859,1.82901 9.495794,14.45081 9.866843,14.5932 0.968075,0.37149 2.002239,-0.72011 1.525736,-1.61046 -0.13885,-0.25944 -2.286164,-3.59039 -4.771809,-7.40209 -2.485646,-3.81171 -4.519356,-7.06882 -4.519356,-7.23803 0,-0.1692 2.514551,-4.22014 5.58789,-9.00207 5.022922,-7.81537 5.658626,-8.69443 6.287522,-8.69443 0.714271,0 19.375647,2.84685 19.489538,2.97319 0.03447,0.0382 0.916138,2.80795 1.959265,6.15493 1.043127,3.34698 2.494523,7.91794 3.225325,10.15768 1.32873,4.07227 1.32873,4.07227 0.784784,4.61622 -0.29917,0.29917 -3.791391,2.76357 -7.76049,5.47645 -6.329937,4.32652 -7.227458,5.02552 -7.305387,5.6895 -0.09685,0.82519 0.581527,1.54912 1.279469,1.36539 0.218281,-0.0575 3.890025,-2.50395 8.159431,-5.43663 z"
       id="path1" /></g></svg>
